<?xml version="1.0" encoding="UTF-8"?> <svg xmlns="http://www.w3.org/2000/svg" xmlns:xlink="http://www.w3.org/1999/xlink" id="Layer_1" data-name="Layer 1" viewBox="0 0 340.8 340.83"> <defs> <style>.cls-1{fill:url(#linear-gradient);}.cls-2{fill:url(#linear-gradient-2);}.cls-3{fill:#312146;}.cls-4{fill:#5a2752;}.cls-5{fill:#a5405c;}.cls-6{fill:#ef5965;}.cls-7{fill:#f47d33;}.cls-8{fill:#f9a000;}</style> <linearGradient id="linear-gradient" x1="66.13" y1="275.83" x2="274.6" y2="67.36" gradientTransform="matrix(1, 0, 0, -1, 0, 341.97)" gradientUnits="userSpaceOnUse"> <stop offset="0" stop-color="#312146"></stop> <stop offset="0.2" stop-color="#5a2752"></stop> <stop offset="0.4" stop-color="#a5405c"></stop> <stop offset="0.6" stop-color="#ef5965"></stop> <stop offset="0.8" stop-color="#f47d33"></stop> <stop offset="1" stop-color="#f9a000"></stop> </linearGradient> <linearGradient id="linear-gradient-2" x1="77.78" y1="264.18" x2="262.96" y2="78.99" xlink:href="#linear-gradient"></linearGradient> </defs> <title>Artboard 1</title> <path class="cls-1" d="M170.37,340.83A91.43,91.43,0,0,1,105.52,314L26.74,235.22a92,92,0,0,1,0-129.7l78.78-78.78a92,92,0,0,1,129.7,0L314,105.52a91.82,91.82,0,0,1,0,129.7L235.22,314a91.43,91.43,0,0,1-64.85,26.85Zm0-328.85A79.14,79.14,0,0,0,114,35.22L35.22,114a80,80,0,0,0,0,112.73L114,305.52a79.81,79.81,0,0,0,112.73,0l78.78-78.78a79.81,79.81,0,0,0,0-112.73L226.74,35.22A79.14,79.14,0,0,0,170.37,12Z"></path> <path class="cls-2" d="M170.37,323.66a76.25,76.25,0,0,1-54.31-22.41L39.49,224.68a76.89,76.89,0,0,1,0-108.61L116.06,39.5a76.89,76.89,0,0,1,108.61,0l76.57,76.57a77,77,0,0,1,0,108.61l-76.56,76.57a76.25,76.25,0,0,1-54.31,22.41Zm0-298.63a68.59,68.59,0,0,0-48.65,20.12L45.15,121.72a68.88,68.88,0,0,0,0,97.3l76.57,76.57a69,69,0,0,0,97.3,0L295.59,219a69,69,0,0,0,0-97.3L219,45.15A68.59,68.59,0,0,0,170.37,25Z"></path> <path class="cls-3" d="M167.69,261.9a77.46,77.46,0,0,0,64-30.19,255.36,255.36,0,0,1-40.45,6.63Zm94.19-94.19-23.53,23.53a252.29,252.29,0,0,1-6.65,40.47A77.18,77.18,0,0,0,261.88,167.71Z"></path> <path class="cls-4" d="M293,170.37A61,61,0,0,0,286.59,143l-24.71,24.73a77.18,77.18,0,0,1-30.17,64A61.39,61.39,0,0,0,293,170.37ZM217.42,246a77,77,0,0,1-49.73,15.93L143,286.59a61.33,61.33,0,0,0,88.71-54.88A77.41,77.41,0,0,1,217.42,246ZM167.69,261.9l23.56-23.56a253.39,253.39,0,0,1-57.46-1.77l-9.87,9.87a77.34,77.34,0,0,0,43.77,15.46Zm64-91.53a61.08,61.08,0,0,0-5.76-26l-71.18,71.21c.44.61.87,1.23,1.34,1.84a77.42,77.42,0,0,0,14.26,14.28,61.33,61.33,0,0,0,61.34-61.32Z"></path> <path class="cls-4" d="M236.55,133.81a254.1,254.1,0,0,1,1.81,57.42l23.53-23.53A76.91,76.91,0,0,0,246.42,124Z"></path> <path class="cls-5" d="M156.11,217.42c-.46-.6-.89-1.22-1.34-1.84L144.41,226a61.08,61.08,0,0,0,26,5.76,77.42,77.42,0,0,1-14.3-14.32Zm-32.19,29-9.78,9.78A61.19,61.19,0,0,0,143,286.58l24.69-24.69A77.34,77.34,0,0,1,123.92,246.44Zm138-78.73L286.59,143a61.55,61.55,0,0,0-30.38-28.85l-9.8,9.8a76.91,76.91,0,0,1,15.47,43.78ZM154.77,215.58,226,144.41a61.56,61.56,0,0,0-29.61-29.61L140.14,171a76.91,76.91,0,0,0,14.63,44.6ZM94.33,216.8l.45.62A77.4,77.4,0,0,0,109,231.7q-3-12.25-4.84-24.77Z"></path> <path class="cls-5" d="M123.92,246.44l9.87-9.87A252.16,252.16,0,0,1,109,231.71,77.3,77.3,0,0,0,123.92,246.44ZM246.42,124l-.45-.62a77.41,77.41,0,0,0-14.26-14.28q3,12.25,4.84,24.77Zm-29.6-29.67L207,104.18A252.15,252.15,0,0,1,231.73,109,77.31,77.31,0,0,0,216.82,94.31Z"></path> <path class="cls-6" d="M94.78,217.42c-.16-.2-.3-.42-.45-.62l-9.8,9.8A61.1,61.1,0,0,0,109,231.71a77.4,77.4,0,0,1-14.26-14.29Z"></path> <path class="cls-6" d="M109,231.71a61.1,61.1,0,0,0,5.11,24.51l9.78-9.78A77.3,77.3,0,0,1,109,231.71ZM246,123.32c.16.2.3.42.45.62l9.8-9.8A61.1,61.1,0,0,0,231.72,109,77.41,77.41,0,0,1,246,123.32ZM231.71,109a61.11,61.11,0,0,0-5.11-24.51l-9.78,9.78A77.31,77.31,0,0,1,231.71,109ZM140.14,171,114.8,196.32A61.56,61.56,0,0,0,144.41,226l10.36-10.36A76.91,76.91,0,0,1,140.14,171Zm0,0,56.19-56.19a61.08,61.08,0,0,0-26-5.76A77.17,77.17,0,0,0,140.14,171ZM94.33,216.8l9.87-9.87a254.07,254.07,0,0,1-1.81-57.42L78.86,173A76.91,76.91,0,0,0,94.33,216.8Z"></path> <path class="cls-6" d="M173.05,78.85l-23.56,23.56A253.39,253.39,0,0,1,207,104.18l9.87-9.87a77.34,77.34,0,0,0-43.8-15.46Z"></path> <path class="cls-7" d="M170.37,109a61.34,61.34,0,0,0-55.57,87.29L140.14,171A77.17,77.17,0,0,1,170.37,109ZM78.86,173,54.15,197.75A61.23,61.23,0,0,0,84.52,226.6l9.8-9.8A76.91,76.91,0,0,1,78.86,173Zm138-78.73,9.78-9.78a61.55,61.55,0,0,0-28.85-30.38l-24.7,24.7A77.34,77.34,0,0,1,216.82,94.31ZM173.05,78.85a77.46,77.46,0,0,0-64,30.19,255.37,255.37,0,0,1,40.45-6.63ZM78.86,173l23.53-23.53A252.29,252.29,0,0,1,109,109,77.18,77.18,0,0,0,78.86,173Z"></path> <path class="cls-8" d="M109,109a61.33,61.33,0,0,0-54.88,88.71L78.87,173A77.18,77.18,0,0,1,109,109Z"></path> <path class="cls-8" d="M123.32,94.78a77,77,0,0,1,49.73-15.93l24.69-24.69A61.33,61.33,0,0,0,109,109,77.4,77.4,0,0,1,123.32,94.78Z"></path> </svg> 